<svg xmlns="http://www.w3.org/2000/svg" xmlns:xlink="http://www.w3.org/1999/xlink" width="214" height="147" viewBox="0 0 214 147"><defs><path id="ekm5a" d="M1160 2554a6 6 0 0 1 6-6h140a6 6 0 0 1 6 6v84a6 6 0 0 1-6 6h-140a6 6 0 0 1-6-6z"/><path id="ekm5b" d="M1161 2628v-2h118v2z"/><path id="ekm5c" d="M1284 2628v-2h26v2z"/><path id="ekm5d" d="M1161 2643v-16h150v16z"/><path id="ekm5e" d="M1233 2635a3 3 0 1 1 6 0 3 3 0 0 1-6 0z"/><path id="ekm5f" d="M1187.04 2549.29v24.09h42.3v22.32h51.78v31.19H1161.2v-73.36l1.94-3.29 2.77-.95z"/><path id="ekm5g" d="M1348 2531v-17h24v17z"/><path id="ekm5h" d="M1348 2571v-17h24v17z"/><path id="ekm5i" d="M1306 2531v-17h26v17z"/><path id="ekm5j" d="M1210.03 2652.08l1.68-8.57h49.56l1.66 8.57zm-.55-8.57l-2.54 8.55h-3.88v5.93h-2.1v2.01h35.81V2658h-31.7v-3.94h62.97v3.94h-27.98v2.01h32V2658h-2.14v-5.93H1266l-2.48-8.55z"/><path id="ekm5n" d="M1190 2562v-21h92v21z"/><path id="ekm5o" d="M1307.04 2535.33v-3.5h23.92v3.5zm8.88 5.58l.68-3.5h4.82l.67 3.5zm-2.07-.01h-2.41v2.1h15.14v-2.1h-2.41l-.68-3.5h9.51V2513h-16.15v2.1h14.12v14.64h-23.92v-14.64h6.54v-2.1H1305v24.42h9.51z"/><path id="ekm5p" d="M1310.91 2523v-3.71h2.09V2517h-4v6h1.91z"/><path id="ekm5q" d="M1372.02 2531.4v3.41h-23.43v-3.4zm-14.74 8.85l.66-3.41h4.72l.66 3.41zm16.72-21.86V2513h-27.4v9.8h-9.6v2.06h9.6v12h9.3l-.65 3.4h-2.36v2.06h6.41v7.68h2v-7.68h6.41v-2.07h-2.35l-.67-3.41h9.31v-15.18h-2v7.67h-23.41v-14.28h23.43v3.34z"/><path id="ekm5r" d="M1351.91 2523v-3.71h2.09V2517h-4v6h1.91z"/><path id="ekm5s" d="M1372.02 2575.31h-23.43v-3.49h23.43zm-14.74 5.58l.66-3.5h4.72l.66 3.5zm9.38-25.79h5.36v14.63h-23.43v-14.63h14.89v-2.1h-16.89v15.62H1337v2.1h9.6v6.69h9.3l-.65 3.5h-2.36v2.09h14.82v-2.1h-2.35l-.67-3.49h9.31V2553h-7.34z"/><path id="ekm5t" d="M1351.91 2563v-3.71h2.09V2557h-4v6h1.91z"/><path id="ekm5u" d="M1337.56 2546.5a3.4 3.4 0 0 1 2.12-3.15 3.47 3.47 0 0 1 3.76.74c.98.97 1.28 2.44.74 3.71a3.44 3.44 0 0 1-6.62-1.3zm8.9 1.05h3.54v-2.1h-3.54a5.55 5.55 0 0 0-5.46-4.45 5.55 5.55 0 0 0-5.46 4.45H1332v2.1h3.55a5.55 5.55 0 0 0 5.46 4.45 5.55 5.55 0 0 0 5.46-4.45z"/><path id="ekm5v" d="M1327 2549v-3h3v3z"/><path id="ekm5w" d="M1322 2549v-3h3v3z"/><path id="ekm5x" d="M1354 2549v-3h3v3z"/><path id="ekm5y" d="M1350 2549v-3h3v3z"/><path id="ekm5z" d="M1338 2540v-3h3v3z"/><path id="ekm5A" d="M1338 2536v-3h3v3z"/><path id="ekm5B" d="M1338 2531v-3h3v3z"/><path id="ekm5C" d="M1338 2557v-3h3v3z"/><path id="ekm5D" d="M1338 2561v-3h3v3z"/><path id="ekm5E" d="M1338 2565v-3h3v3z"/><path id="ekm5F" d="M1244 2574v-24h24v24z"/><path id="ekm5G" d="M1266.95 2550.09v22.8h-21.91v-22.8zm-13.14-5.15V2543H1243v37h14.1v-1.94h-12.06v-3.21h21.9v3.2h-6.59v1.95h8.65v-37h-11.92v1.94h9.87v3.21h-21.91v-3.2z"/><path id="ekm5H" d="M1236.6 2541.3l-1.5 1.59v-6.53c.03-.9-.3-1.77-.9-2.4-.59-.64-1.4-.98-2.24-.96H1217v2.15h14.96c.3-.02.6.1.82.33.21.23.32.55.3.88v6.53l-1.5-1.6-1.41 1.53 3.92 4.18 3.91-4.18z"/><path id="ekm5I" d="M1216.06 2553H1231v-2.15h-14.94a1 1 0 0 1-.83-.32 1.16 1.16 0 0 1-.3-.89v-6.52l1.48 1.58 1.42-1.52-3.91-4.18-3.92 4.18 1.43 1.52 1.48-1.58v6.53c-.02.9.3 1.76.9 2.4.6.63 1.4.98 2.25.95z"/><path id="ekm5J" d="M1212 2536v-3h3v3z"/><path id="ekm5K" d="M1208 2536v-3h3v3z"/><path id="ekm5L" d="M1233 2553v-3h3v3z"/><path id="ekm5M" d="M1237 2553v-3h3v3z"/><path id="ekm5N" d="M1255 2563v-3h3v3z"/><path id="ekm5O" d="M1259 2563v-3h3v3z"/><path id="ekm5P" d="M1251 2563v-3h3v3z"/><path id="ekm5Q" d="M1239.74 2561.03h-36.76v-46.06h19.3l2.4 6.38h-17.45v1.97h33.56v-1.97h-14l-.83-2.2h40.06v19.51h1.98v-21.52h-1.98v.04h-40.8l-1.57-4.18H1201v50h38.74v-1.97z"/><clipPath id="ekm5k"><use fill="#fff" xlink:href="#ekm5a"/></clipPath><clipPath id="ekm5l"><use fill="#fff" xlink:href="#ekm5b"/></clipPath><clipPath id="ekm5m"><use fill="#fff" xlink:href="#ekm5c"/></clipPath></defs><g><g transform="translate(-1160 -2513)"><g><use fill="#04bebd" xlink:href="#ekm5d"/></g><g><use fill="#fff" xlink:href="#ekm5e"/></g><g><use fill="#c8dce5" xlink:href="#ekm5f"/></g><g><use fill="#ffd900" xlink:href="#ekm5g"/></g><g><use fill="#ffd900" xlink:href="#ekm5h"/></g><g><use fill="#ffd900" xlink:href="#ekm5i"/></g><g><g><g><use fill="#507c88" xlink:href="#ekm5j"/></g></g><g><g><use fill="#fff" fill-opacity="0" stroke="#507c88" stroke-miterlimit="50" stroke-width="4" clip-path="url(&quot;#ekm5k&quot;)" xlink:href="#ekm5a"/></g><g><use fill="#d8d8d8" xlink:href="#ekm5b"/><use fill="#fff" fill-opacity="0" stroke="#507c88" stroke-miterlimit="50" stroke-width="2" clip-path="url(&quot;#ekm5l&quot;)" xlink:href="#ekm5b"/></g><g><use fill="#d8d8d8" xlink:href="#ekm5c"/><use fill="#fff" fill-opacity="0" stroke="#507c88" stroke-miterlimit="50" stroke-width="2" clip-path="url(&quot;#ekm5m&quot;)" xlink:href="#ekm5c"/></g><g><use fill="#fff" xlink:href="#ekm5n"/></g></g><g><use fill="#507c88" xlink:href="#ekm5o"/></g><g><use fill="#507c88" xlink:href="#ekm5p"/></g><g><use fill="#507c88" xlink:href="#ekm5q"/></g><g><use fill="#507c88" xlink:href="#ekm5r"/></g><g><use fill="#507c88" xlink:href="#ekm5s"/></g><g><use fill="#507c88" xlink:href="#ekm5t"/></g><g><use fill="#507c88" xlink:href="#ekm5u"/></g><g><use fill="#507c88" xlink:href="#ekm5v"/></g><g><use fill="#507c88" xlink:href="#ekm5w"/></g><g><use fill="#507c88" xlink:href="#ekm5x"/></g><g><use fill="#507c88" xlink:href="#ekm5y"/></g><g><use fill="#507c88" xlink:href="#ekm5z"/></g><g><use fill="#507c88" xlink:href="#ekm5A"/></g><g><use fill="#507c88" xlink:href="#ekm5B"/></g><g><use fill="#507c88" xlink:href="#ekm5C"/></g><g><use fill="#507c88" xlink:href="#ekm5D"/></g><g><use fill="#507c88" xlink:href="#ekm5E"/></g><g><use fill="#ffd900" xlink:href="#ekm5F"/></g><g><use fill="#507c88" xlink:href="#ekm5G"/></g><g><use fill="#507c88" xlink:href="#ekm5H"/></g><g><use fill="#507c88" xlink:href="#ekm5I"/></g><g><use fill="#507c88" xlink:href="#ekm5J"/></g><g><use fill="#507c88" xlink:href="#ekm5K"/></g><g><use fill="#507c88" xlink:href="#ekm5L"/></g><g><use fill="#507c88" xlink:href="#ekm5M"/></g><g><use fill="#507c88" xlink:href="#ekm5N"/></g><g><use fill="#507c88" xlink:href="#ekm5O"/></g><g><use fill="#507c88" xlink:href="#ekm5P"/></g><g><use fill="#507c88" xlink:href="#ekm5Q"/></g><g><use fill="#fff" fill-opacity="0" stroke="#507c88" stroke-miterlimit="50" stroke-width="2" xlink:href="#ekm5e"/></g></g></g></g></svg>