<svg xmlns="http://www.w3.org/2000/svg" xmlns:xlink="http://www.w3.org/1999/xlink" width="198" height="149" viewBox="0 0 198 149"><defs><path id="ggz8a" d="M596.99 2150.5v4.54H719V2143.36l-4.92-3.13H605l-4.64 1.01-3.36 4.04z"/><path id="ggz8b" d="M574 2196.5a2.5 2.5 0 1 1 5 0 2.5 2.5 0 0 1-5 0z"/><path id="ggz8c" d="M714.69 2188.09l.56 15.8 9.98 5.67 10.42-5.66.62-15.81 5.34 4.77s2.54 6.98 2.54 7.52c0 .55-.78 6.98-.78 6.98l-4.18 6.03-7.05 4.87v39.77h-13.67v-39.77l-6.48-4.87-3.9-5.13-.93-6.21.93-6.81z"/><path id="ggz8d" d="M654 2286v-130h45v130z"/><path id="ggz8e" d="M598 2215v-59h58v59z"/><path id="ggz8f" d="M574 2142.5a2.5 2.5 0 1 1 5 0 2.5 2.5 0 0 1-5 0z"/><path id="ggz8g" d="M717.64 2285.65V2271H720v17h-14v-2.35zM646 2288v-2.35h53v2.35z"/><path id="ggz8h" d="M712.35 2141.34a5.27 5.27 0 0 1 5.29 5.25v6.9H598.38v-6.9c0-2.9 2.36-5.24 5.28-5.25zm-113.97 14.49h119.26v21.83H720v-31.07a7.63 7.63 0 0 0-7.65-7.59h-108.7a7.63 7.63 0 0 0-7.65 7.59V2222h2.38z"/><path id="ggz8i" d="M606 2150a2 2 0 1 0 0-4 2 2 0 0 0 0 4z"/><path id="ggz8j" d="M612 2150a2 2 0 1 0 0-4 2 2 0 0 0 0 4z"/><path id="ggz8k" d="M617 2148a2 2 0 1 1 4 0 2 2 0 0 1-4 0z"/><path id="ggz8l" d="M604 2170v-2h54v2z"/><path id="ggz8m" d="M604 2179v-2h27v2z"/><path id="ggz8n" d="M640 2179v-2h32v2z"/><path id="ggz8o" d="M604 2188v-2h39v2z"/><path id="ggz8p" d="M648 2188v-2h11v2z"/><path id="ggz8q" d="M604 2198v-2h17v2z"/><path id="ggz8r" d="M625 2198v-2h17v2z"/><path id="ggz8s" d="M641 2216v-2h17v2z"/><path id="ggz8t" d="M658 2216v-2h17v2z"/><path id="ggz8u" d="M648 2198v-2h12v2z"/><path id="ggz8v" d="M604 2208v-2h10v2z"/><path id="ggz8w" d="M604 2216v-2h34v2z"/><path id="ggz8x" d="M604 2226v-2h34v2z"/><path id="ggz8y" d="M641 2226v-2h35v2z"/><path id="ggz8z" d="M623 2235v-2h16v2z"/><path id="ggz8A" d="M641 2245v-2h17v2z"/><path id="ggz8B" d="M641 2255v-2h35v2z"/><path id="ggz8C" d="M657 2263v-2h18v2z"/><path id="ggz8D" d="M731.07 2226.73v29.94h-11.16v-29.94zm0-4.47v2.02h-11.16v-2.02zm.01-4.55v2.1h-11.17v-2.1c0-.53-.36-1-.87-1.16a14.73 14.73 0 0 1-10.55-14.53c0-5.17 1.95-9.52 5.48-12.27v14.5c0 .44.25.85.65 1.07l10.26 5.6c.37.2.83.2 1.21 0l10.26-5.6c.4-.22.64-.63.64-1.07v-14.5c3.56 2.74 5.5 7.1 5.5 12.27a14.73 14.73 0 0 1-10.54 14.53c-.52.16-.87.63-.87 1.16zm3.44-14.19l-9.02 4.91-9-4.9v-11.98l9-4.91 9.02 4.9zm10.48-1.5c0-6.96-3.15-12.65-8.63-15.62a1.23 1.23 0 1 0-1.85 1.06v1.28l-8.4-4.58c-.38-.21-.84-.21-1.22 0l-8.4 4.58v-1.28c0-.68-.57-1.22-1.26-1.22-.2 0-.41.05-.6.15-5.48 2.98-8.63 8.66-8.63 15.62a17.24 17.24 0 0 0 11.4 16.55V2259h16.17v-40.44c7.01-2.57 11.6-9.2 11.42-16.54z"/><path id="ggz8E" d="M725.5 2201.63a4.12 4.12 0 1 1 0-8.25 4.12 4.12 0 0 1 0 8.25zm-6.5-4.13a6.5 6.5 0 1 0 13 0 6.5 6.5 0 0 0-13 0z"/><path id="ggz8F" d="M548.06 2265h.22c.59.01 1.1-.4 1.24-1 .29-1.5.75-2.95 1.38-4.34.13-.28.13-.6.02-.9a1.28 1.28 0 0 0-2.34-.04 22.06 22.06 0 0 0-1.56 4.87c-.06.3 0 .62.18.87.2.3.51.49.86.53z"/><path id="ggz8G" d="M592.78 2285.76h-24.96a18.8 18.8 0 0 1-18.62-17.72 1.13 1.13 0 0 0-.75-.98 1.08 1.08 0 0 0-1.18.32c-.19.22-.29.5-.27.8.7 11.11 9.84 19.81 20.82 19.81h24.96c.41.06.82-.14 1.05-.5.23-.37.23-.84 0-1.2a1.08 1.08 0 0 0-1.05-.51z"/><path id="ggz8H" d="M630.36 2255.55v-.19a28.92 28.92 0 0 0-19.59-24.8c-10.9-3.7-23-.7-30.84 7.67a10.16 10.16 0 0 0-11.47-.71 10.01 10.01 0 0 0-4.67 6.66v.02a8.99 8.99 0 0 0-.2 1.71v.22a20.8 20.8 0 0 0-12.36 7.69c-.37.47-.28 1.15.2 1.52.19.15.42.23.66.23.34 0 .66-.16.87-.43 2.9-3.8 7.2-6.33 11.96-7.04l1.06-.16-.14-1.05a7.64 7.64 0 0 1-.07-.97v-.42a7.82 7.82 0 0 1 3.8-6.15 7.93 7.93 0 0 1 10.82 2.63c.16.27.42.46.72.53.43.1.88-.07 1.14-.42.26-.35.28-.83.06-1.2-.24-.4-.51-.77-.8-1.13a27.18 27.18 0 0 1 28.52-7.11 26.77 26.77 0 0 1 18.11 28.17c-.06.6.37 1.13.98 1.19a1.1 1.1 0 0 0 1.17-.97c.11-1.08.16-2.15.15-3.23a13.74 13.74 0 0 1 10.27 15.02 13.83 13.83 0 0 1-13.75 12H600.6c-.6 0-1.1.49-1.1 1.09 0 .6.5 1.08 1.1 1.08h30.55l3.53-1.97a15.9 15.9 0 0 0 8.32-13.93c.06-7.5-5.23-14-12.64-15.55z"/><path id="ggz8I" d="M575.33 2142.36c0-.56.33-1.07.83-1.28.5-.22 1.07-.1 1.46.3.38.39.5.98.3 1.5-.22.51-.7.85-1.25.85-.73 0-1.34-.6-1.35-1.36zm0 54.25c0-.56.33-1.06.83-1.27.5-.22 1.07-.1 1.46.3.38.39.5.98.3 1.5-.22.5-.7.85-1.25.85-.73 0-1.34-.6-1.35-1.36zm-26.39-16.77c.86.38 1.76.67 2.67.88 3.13.65 6.33.96 9.52.92 3.2.04 6.4-.27 9.52-.92.92-.2 1.81-.5 2.67-.88v5.25c-.11.15-.75.78-3.51 1.37a43.6 43.6 0 0 1-8.68.78c-2.9.03-5.81-.23-8.67-.78-2.77-.6-3.4-1.22-3.52-1.37zm20.86-.98c-2.86.55-5.77.81-8.67.78-2.91.03-5.82-.23-8.68-.78-2.43-.52-3.22-1.09-3.45-1.32.2-.2.85-.64 2.63-1.1 3.13.66 6.31.97 9.5.94 3.2.04 6.37-.27 9.5-.92 1.79.44 2.42.9 2.62 1.1-.22.22-1.01.78-3.44 1.3zm-20.86-22.76c.86.39 1.75.68 2.67.88 3.13.66 6.33.97 9.52.93 1.47 0 2.91-.06 4.29-.17a.99.99 0 0 0 .9-1.07.98.98 0 0 0-1.05-.92c-1.33.1-2.72.16-4.14.16-2.9.03-5.81-.24-8.67-.79-2.43-.52-3.22-1.08-3.45-1.3.23-.22 1.02-.79 3.45-1.32 2.47-.48 4.98-.74 7.5-.77v2.07c.02.52.45.93.96.93.52 0 .94-.4.98-.93v-2.05c2.65 0 5.3.27 7.9.77 2.46.53 3.24 1.1 3.46 1.32-.35.34-1.65 1.01-4.61 1.51a1 1 0 0 0-.8 1.14.97.97 0 0 0 1.12.83c1.5-.21 2.96-.61 4.35-1.2v5.24c-.1.14-.65.69-2.91 1.24l.02.1-.06-.1c-.18.05-.36.1-.56.13-2.86.56-5.77.82-8.68.79a43.19 43.19 0 0 1-9.23-.91h-.04c-2.26-.56-2.81-1.1-2.92-1.24zm21.68 8.49c1.79.43 2.42.9 2.62 1.1-.22.21-1.01.77-3.44 1.3-2.86.56-5.76.82-8.67.79-2.9.03-5.81-.23-8.67-.78-2.43-.52-3.23-1.08-3.45-1.31.2-.2.85-.64 2.63-1.1 3.12.65 6.3.96 9.49.92a43.9 43.9 0 0 0 9.49-.92zm-19.01 23.73c2.81.6 5.68.9 8.55.91v7.4c0 .55.44 1 .97 1h12.4a3.3 3.3 0 0 0 3.17 2.37 3.3 3.3 0 0 0 3.12-2.45v-1.84a3.3 3.3 0 0 0-3.12-2.45 3.3 3.3 0 0 0-3.17 2.37H562.1v-6.4c2.88 0 5.74-.32 8.55-.91 3.1-.73 4.62-1.75 4.62-3.16v-7.6c0-.84-.54-1.54-1.65-2.13 1.1-.59 1.65-1.29 1.65-2.14a.99.99 0 0 0-.94-1.03.98.98 0 0 0-1 .96c-.1.12-.65.68-2.92 1.24h-.04l-.56.13c-2.86.55-5.77.81-8.68.78-2.9.03-5.81-.23-8.67-.78l-.56-.13h-.05c-2.25-.55-2.8-1.1-2.9-1.23v-5.25c.85.38 1.74.68 2.66.87 3.13.66 6.33.97 9.52.94 3.2.03 6.4-.28 9.52-.95.92-.2 1.81-.49 2.67-.87v1.53c-.02.37.16.73.47.92.31.2.7.2 1.01 0 .31-.19.5-.55.47-.92v-3.8c0-.85-.54-1.55-1.65-2.14 1.1-.59 1.65-1.29 1.65-2.13v-7.6c0-1.4-1.51-2.43-4.62-3.16-2.88-.6-5.81-.92-8.75-.92v-6.38h11.63a3.3 3.3 0 0 0 3.13 2.38 3.3 3.3 0 0 0 3.14-2.38h.2v-2h-.2a3.3 3.3 0 0 0-3.14-2.37 3.3 3.3 0 0 0-3.13 2.38h-12.6a.99.99 0 0 0-.98 1v7.37c-2.8.04-5.6.35-8.34.94-3.1.7-4.61 1.75-4.61 3.13v7.6c0 .85.54 1.55 1.65 2.14-1.11.59-1.65 1.29-1.65 2.13v7.6c0 .85.54 1.55 1.65 2.14-1.11.59-1.65 1.29-1.65 2.13v7.6c0 1.4 1.5 2.43 4.6 3.16z"/><path id="ggz8J" d="M638 2271.07c0-3.98-2.2-7.6-5.7-9.52l-.02.1a3.36 3.36 0 0 1-3.7 2.92h-.04a3.32 3.32 0 0 1-3.02-3.63 23.05 23.05 0 0 0-8.56-20.48 24.82 24.82 0 0 0-27.96-2.13c10.94 4.62 18.18 15.22 18.18 26.85 0 6.1-1.89 11.88-5.48 16.82h25c6.23 0 11.3-4.9 11.3-10.93"/></defs><g><g transform="translate(-547 -2139)"><g><use fill="#04bebd" xlink:href="#ggz8a"/></g><g><use fill="#ffd900" xlink:href="#ggz8b"/></g><g><use fill="#ffd900" xlink:href="#ggz8c"/></g><g><use fill="#c8dce5" xlink:href="#ggz8d"/></g><g><use fill="#cadde6" xlink:href="#ggz8e"/></g><g><use fill="#ffd900" xlink:href="#ggz8f"/></g><g><g><use fill="#32808d" xlink:href="#ggz8g"/></g><g><use fill="#32808d" xlink:href="#ggz8h"/></g><g><use fill="#32808d" xlink:href="#ggz8i"/></g><g><use fill="#32808d" xlink:href="#ggz8j"/></g><g><use fill="#32808d" xlink:href="#ggz8k"/></g><g><use fill="#32808d" xlink:href="#ggz8l"/></g><g><use fill="#32808d" xlink:href="#ggz8m"/></g><g><use fill="#32808d" xlink:href="#ggz8n"/></g><g><use fill="#32808d" xlink:href="#ggz8o"/></g><g><use fill="#32808d" xlink:href="#ggz8p"/></g><g><use fill="#32808d" xlink:href="#ggz8q"/></g><g><use fill="#32808d" xlink:href="#ggz8r"/></g><g><use fill="#32808d" xlink:href="#ggz8s"/></g><g><use fill="#32808d" xlink:href="#ggz8t"/></g><g><use fill="#32808d" xlink:href="#ggz8u"/></g><g><use fill="#32808d" xlink:href="#ggz8v"/></g><g><use fill="#32808d" xlink:href="#ggz8w"/></g><g><use fill="#32808d" xlink:href="#ggz8x"/></g><g><use fill="#32808d" xlink:href="#ggz8y"/></g><g><use fill="#32808d" xlink:href="#ggz8z"/></g><g><use fill="#32808d" xlink:href="#ggz8A"/></g><g><use fill="#32808d" xlink:href="#ggz8B"/></g><g><use fill="#32808d" xlink:href="#ggz8C"/></g><g><use fill="#32808d" xlink:href="#ggz8D"/></g><g><use fill="#32808d" xlink:href="#ggz8E"/></g><g><use fill="#32808d" xlink:href="#ggz8F"/></g><g><use fill="#32808d" xlink:href="#ggz8G"/></g><g><use fill="#32808d" xlink:href="#ggz8H"/></g><g><use fill="#32808d" xlink:href="#ggz8I"/></g></g><g><use fill="#04bebd" xlink:href="#ggz8J"/></g></g></g></svg>