<?xml version="1.0" encoding="utf-8"?>
<!-- Generator: Adobe Illustrator 22.1.0, SVG Export Plug-In . SVG Version: 6.00 Build 0)  -->
<svg version="1.1" id="Слой_1" xmlns="http://www.w3.org/2000/svg" xmlns:xlink="http://www.w3.org/1999/xlink" x="0px" y="0px"
	 viewBox="0 0 219 148" style="enable-background:new 0 0 219 148;" xml:space="preserve">
<style type="text/css">
	.st0{fill:#C8DCE5;}
	.st1{fill:#2F7D8A;}
	.st2{filter:url(#Adobe_OpacityMaskFilter);}
	.st3{fill:#FFFFFF;}
	.st4{mask:url(#mask-2_39_);fill:#04BEBD;}
	.st5{filter:url(#Adobe_OpacityMaskFilter_1_);}
	.st6{mask:url(#mask-2_41_);fill:#2F7D8A;}
	.st7{filter:url(#Adobe_OpacityMaskFilter_2_);}
	.st8{mask:url(#mask-2_42_);fill:#2F7D8A;}
	.st9{filter:url(#Adobe_OpacityMaskFilter_3_);}
	.st10{mask:url(#mask-2_43_);fill:#2F7D8A;}
	.st11{filter:url(#Adobe_OpacityMaskFilter_4_);}
	.st12{mask:url(#mask-2_44_);fill:#2F7D8A;}
	.st13{filter:url(#Adobe_OpacityMaskFilter_5_);}
	.st14{mask:url(#mask-2_45_);fill:#2F7D8A;}
	.st15{filter:url(#Adobe_OpacityMaskFilter_6_);}
	.st16{mask:url(#mask-2_46_);fill:#2F7D8A;}
	.st17{filter:url(#Adobe_OpacityMaskFilter_7_);}
	.st18{mask:url(#mask-2_47_);fill:#2F7D8A;}
	.st19{filter:url(#Adobe_OpacityMaskFilter_8_);}
	.st20{mask:url(#mask-2_48_);fill:#2F7D8A;}
	.st21{filter:url(#Adobe_OpacityMaskFilter_9_);}
	.st22{mask:url(#mask-2_49_);fill:#2F7D8A;}
	.st23{filter:url(#Adobe_OpacityMaskFilter_10_);}
	.st24{mask:url(#mask-2_51_);fill:#04BEBD;}
	.st25{filter:url(#Adobe_OpacityMaskFilter_11_);}
	.st26{mask:url(#mask-2_57_);fill:#2F7D8A;}
	.st27{filter:url(#Adobe_OpacityMaskFilter_12_);}
	.st28{mask:url(#mask-2_58_);fill:#2F7D8A;}
	.st29{filter:url(#Adobe_OpacityMaskFilter_13_);}
	.st30{mask:url(#mask-2_59_);fill:#2F7D8A;}
	.st31{fill:#FFE000;}
</style>
<title>Group 68</title>
<desc>Created with Sketch.</desc>
<path id="Fill-2" class="st0" d="M161.8,112.9h-41.9V1.9h31.6c5.7,0,10.3,4.6,10.3,10.2V112.9z"/>
<g id="Clip-5">
</g>
<path class="st1" d="M217.9,16.8c0.5,0,1-0.4,1-1V1.3c0-0.5-0.4-1-1-1h-14.7c-0.5,0-1,0.4-1,1V6h-1.5c-0.4-1.4-1.7-2.4-3.3-2.4h-3.3
	c-1.5,0-2.8,1-3.3,2.4h-3.3c-0.2,0-0.5,0.1-0.6,0.3V1.3c0-0.5-0.4-1-1-1h-14.7c-0.5,0-1,0.4-1,1v14.5c0,0.5,0.4,1,1,1h8V19
	c-1.4,0.4-2.4,1.7-2.4,3.2v3.2c0,1.5,1,2.8,2.4,3.2v3.2c0,0.2,0.1,0.5,0.3,0.6h-8.2c-0.5,0-1,0.4-1,1v14.5c0,0.5,0.4,1,1,1h14.7
	c0.5,0,1-0.4,1-1v-8.2c0.2,0.2,0.4,0.3,0.6,0.3h3.3c0.4,1.4,1.7,2.4,3.3,2.4h3.3c1.5,0,2.8-1,3.3-2.4h1.5v7.9c0,0.5,0.4,1,1,1h14.7
	c0.5,0,1-0.4,1-1V33.6c0-0.5-0.4-1-1-1h-5c0.2-0.2,0.3-0.4,0.3-0.6v-3.2c1.4-0.4,2.4-1.7,2.4-3.2v-3.2c0-1.5-1-2.8-2.4-3.2v-2.2
	H217.9z M212.2,25.3c-0.5,0-1,0.4-1,1v0.3c-0.3-0.3-0.5-0.6-0.5-1.1v-3.2c0-0.4,0.2-0.8,0.5-1.1v0.3c0,0.5,0.4,1,1,1
	c0.5,0,1-0.4,1-1v-0.3c0.3,0.3,0.5,0.6,0.5,1.1v3.2c0,0.4-0.2,0.8-0.5,1.1v-0.3C213.2,25.8,212.7,25.3,212.2,25.3z M198.4,6
	c-0.5,0-1,0.4-1,1c0,0.5,0.4,1,1,1h0.3c-0.3,0.3-0.7,0.5-1.1,0.5h-3.3c-0.4,0-0.8-0.2-1.1-0.5h0.3c0.5,0,1-0.4,1-1c0-0.5-0.4-1-1-1
	h-0.3c0.3-0.3,0.7-0.5,1.1-0.5h3.3c0.4,0,0.8,0.2,1.1,0.5H198.4z M180.5,22.4c0.5,0,1-0.4,1-1v-0.3c0.3,0.3,0.5,0.6,0.5,1.1v3.2
	c0,0.4-0.2,0.8-0.5,1.1v-0.3c0-0.5-0.4-1-1-1c-0.5,0-1,0.4-1,1v0.3c-0.3-0.3-0.5-0.6-0.5-1.1v-3.2c0-0.4,0.2-0.8,0.5-1.1v0.3
	C179.5,22,179.9,22.4,180.5,22.4z M193.5,40.2c0.5,0,1-0.4,1-1c0-0.5-0.4-1-1-1h-0.3c0.3-0.3,0.7-0.5,1.1-0.5h3.3
	c0.4,0,0.8,0.2,1.1,0.5h-0.3c-0.5,0-1,0.4-1,1c0,0.5,0.4,1,1,1h0.3c-0.3,0.3-0.7,0.5-1.1,0.5h-3.3c-0.4,0-0.8-0.2-1.1-0.5H193.5z
	 M203.2,32.6c-0.5,0-1,0.4-1,1v4.7h-1.5c-0.4-1.4-1.7-2.4-3.3-2.4h-3.3c-1.5,0-2.8,1-3.3,2.4h-3.3c-0.2,0-0.5,0.1-0.6,0.3v-4.9
	c0-0.5-0.4-1-1-1h-5c0.2-0.2,0.3-0.4,0.3-0.6v-3.2c1.4-0.4,2.4-1.7,2.4-3.2v-3.2c0-1.5-1-2.8-2.4-3.2v-2.2h4.7c0.5,0,1-0.4,1-1V7.6
	c0.2,0.2,0.4,0.3,0.6,0.3h3.3c0.4,1.4,1.7,2.4,3.3,2.4h3.3c1.5,0,2.8-1,3.3-2.4h1.5v7.9c0,0.5,0.4,1,1,1h8V19
	c-1.4,0.4-2.4,1.7-2.4,3.2v3.2c0,1.5,1,2.8,2.4,3.2v3.2c0,0.2,0.1,0.5,0.3,0.6H203.2z"/>
<g>
	<path class="st1" d="M27,16.7c0.1,0.1,0.3,0.2,0.5,0.2c0.2,0,0.4-0.1,0.5-0.2c0.3-0.3,0.3-0.8,0-1.1l-4.1-4.1h31.4
		c0.4,0,0.8-0.3,0.8-0.8c0-0.4-0.3-0.8-0.8-0.8H23.9L28,6c0.1-0.1,0.2-0.3,0.2-0.5c0-0.2-0.1-0.4-0.2-0.5c-0.3-0.3-0.8-0.3-1.1,0
		l-5.4,5.4c-0.1,0.1-0.2,0.3-0.2,0.5c0,0.2,0.1,0.4,0.2,0.5L27,16.7z"/>
	<path class="st1" d="M50.5,14.7c-0.3-0.3-0.8-0.3-1.1,0c-0.3,0.3-0.3,0.8,0,1.1l4.1,4.1H22.1c-0.4,0-0.8,0.3-0.8,0.8
		c0,0.4,0.3,0.8,0.8,0.8h31.4l-4.1,4.1c-0.1,0.1-0.2,0.3-0.2,0.5c0,0.2,0.1,0.4,0.2,0.5c0.2,0.2,0.3,0.2,0.5,0.2
		c0.2,0,0.4-0.1,0.5-0.2l5.4-5.4c0.1-0.1,0.2-0.3,0.2-0.5c0-0.2-0.1-0.4-0.2-0.5L50.5,14.7z"/>
</g>
<defs>
	<filter id="Adobe_OpacityMaskFilter" filterUnits="userSpaceOnUse" x="1.1" y="139.5" width="66.7" height="7.4">
		<feColorMatrix  type="matrix" values="1 0 0 0 0  0 1 0 0 0  0 0 1 0 0  0 0 0 1 0"/>
	</filter>
</defs>
<mask maskUnits="userSpaceOnUse" x="1.1" y="139.5" width="66.7" height="7.4" id="mask-2_39_">
	<g class="st2">
		<polygon id="path-1_39_" class="st3" points="0,148 218.9,148 218.9,0.3 0,0.3 		"/>
	</g>
</mask>
<path id="Fill-43" class="st4" d="M67.8,146.9H4.3c-1.8,0-3.2-1.4-3.2-3.2v-4.2h63.1L67.8,146.9z"/>
<defs>
	<filter id="Adobe_OpacityMaskFilter_1_" filterUnits="userSpaceOnUse" x="63.1" y="0.3" width="71.6" height="55.2">
		<feColorMatrix  type="matrix" values="1 0 0 0 0  0 1 0 0 0  0 0 1 0 0  0 0 0 1 0"/>
	</filter>
</defs>
<mask maskUnits="userSpaceOnUse" x="63.1" y="0.3" width="71.6" height="55.2" id="mask-2_41_">
	<g class="st5">
		<polygon id="path-1_41_" class="st3" points="0,148 218.9,148 218.9,0.3 0,0.3 		"/>
	</g>
</mask>
<path id="Stroke-45" class="st6" d="M65.3,55.5h-2.1V9.1c0-4.8,4-8.8,8.8-8.8h62.8v2.1H72c-3.7,0-6.7,3-6.7,6.7V55.5z"/>
<defs>
	<filter id="Adobe_OpacityMaskFilter_2_" filterUnits="userSpaceOnUse" x="94.3" y="29.3" width="37.2" height="2.1">
		<feColorMatrix  type="matrix" values="1 0 0 0 0  0 1 0 0 0  0 0 1 0 0  0 0 0 1 0"/>
	</filter>
</defs>
<mask maskUnits="userSpaceOnUse" x="94.3" y="29.3" width="37.2" height="2.1" id="mask-2_42_">
	<g class="st7">
		<polygon id="path-1_42_" class="st3" points="0,148 218.9,148 218.9,0.3 0,0.3 		"/>
	</g>
</mask>
<polygon id="Stroke-46" class="st8" points="94.3,31.4 94.3,29.3 131.5,29.3 131.5,31.4 "/>
<defs>
	<filter id="Adobe_OpacityMaskFilter_3_" filterUnits="userSpaceOnUse" x="75.7" y="44.9" width="74.4" height="2.1">
		<feColorMatrix  type="matrix" values="1 0 0 0 0  0 1 0 0 0  0 0 1 0 0  0 0 0 1 0"/>
	</filter>
</defs>
<mask maskUnits="userSpaceOnUse" x="75.7" y="44.9" width="74.4" height="2.1" id="mask-2_43_">
	<g class="st9">
		<polygon id="path-1_43_" class="st3" points="0,148 218.9,148 218.9,0.3 0,0.3 		"/>
	</g>
</mask>
<polygon id="Stroke-47" class="st10" points="75.7,47 75.7,44.9 150.1,44.9 150.1,47 "/>
<defs>
	<filter id="Adobe_OpacityMaskFilter_4_" filterUnits="userSpaceOnUse" x="75.7" y="53.9" width="74.4" height="2.1">
		<feColorMatrix  type="matrix" values="1 0 0 0 0  0 1 0 0 0  0 0 1 0 0  0 0 0 1 0"/>
	</filter>
</defs>
<mask maskUnits="userSpaceOnUse" x="75.7" y="53.9" width="74.4" height="2.1" id="mask-2_44_">
	<g class="st11">
		<polygon id="path-1_44_" class="st3" points="0,148 218.9,148 218.9,0.3 0,0.3 		"/>
	</g>
</mask>
<polygon id="Stroke-48" class="st12" points="75.7,56 75.7,53.9 150.1,53.9 150.1,56 "/>
<defs>
	<filter id="Adobe_OpacityMaskFilter_5_" filterUnits="userSpaceOnUse" x="75.7" y="62.9" width="74.4" height="2.1">
		<feColorMatrix  type="matrix" values="1 0 0 0 0  0 1 0 0 0  0 0 1 0 0  0 0 0 1 0"/>
	</filter>
</defs>
<mask maskUnits="userSpaceOnUse" x="75.7" y="62.9" width="74.4" height="2.1" id="mask-2_45_">
	<g class="st13">
		<polygon id="path-1_45_" class="st3" points="0,148 218.9,148 218.9,0.3 0,0.3 		"/>
	</g>
</mask>
<polygon id="Stroke-49" class="st14" points="75.7,65 75.7,62.9 150.1,62.9 150.1,65 "/>
<defs>
	<filter id="Adobe_OpacityMaskFilter_6_" filterUnits="userSpaceOnUse" x="75.7" y="71.9" width="74.4" height="2.1">
		<feColorMatrix  type="matrix" values="1 0 0 0 0  0 1 0 0 0  0 0 1 0 0  0 0 0 1 0"/>
	</filter>
</defs>
<mask maskUnits="userSpaceOnUse" x="75.7" y="71.9" width="74.4" height="2.1" id="mask-2_46_">
	<g class="st15">
		<polygon id="path-1_46_" class="st3" points="0,148 218.9,148 218.9,0.3 0,0.3 		"/>
	</g>
</mask>
<polygon id="Stroke-50" class="st16" points="75.7,74 75.7,71.9 150.1,71.9 150.1,74 "/>
<defs>
	<filter id="Adobe_OpacityMaskFilter_7_" filterUnits="userSpaceOnUse" x="75.7" y="80.9" width="74.4" height="2.1">
		<feColorMatrix  type="matrix" values="1 0 0 0 0  0 1 0 0 0  0 0 1 0 0  0 0 0 1 0"/>
	</filter>
</defs>
<mask maskUnits="userSpaceOnUse" x="75.7" y="80.9" width="74.4" height="2.1" id="mask-2_47_">
	<g class="st17">
		<polygon id="path-1_47_" class="st3" points="0,148 218.9,148 218.9,0.3 0,0.3 		"/>
	</g>
</mask>
<polygon id="Stroke-51" class="st18" points="75.7,83 75.7,80.9 150.1,80.9 150.1,83 "/>
<defs>
	<filter id="Adobe_OpacityMaskFilter_8_" filterUnits="userSpaceOnUse" x="75.7" y="89.8" width="74.4" height="2.1">
		<feColorMatrix  type="matrix" values="1 0 0 0 0  0 1 0 0 0  0 0 1 0 0  0 0 0 1 0"/>
	</filter>
</defs>
<mask maskUnits="userSpaceOnUse" x="75.7" y="89.8" width="74.4" height="2.1" id="mask-2_48_">
	<g class="st19">
		<polygon id="path-1_48_" class="st3" points="0,148 218.9,148 218.9,0.3 0,0.3 		"/>
	</g>
</mask>
<polygon id="Stroke-52" class="st20" points="75.7,92 75.7,89.8 150.1,89.8 150.1,92 "/>
<defs>
	<filter id="Adobe_OpacityMaskFilter_9_" filterUnits="userSpaceOnUse" x="75.7" y="98.8" width="74.4" height="2.1">
		<feColorMatrix  type="matrix" values="1 0 0 0 0  0 1 0 0 0  0 0 1 0 0  0 0 0 1 0"/>
	</filter>
</defs>
<mask maskUnits="userSpaceOnUse" x="75.7" y="98.8" width="74.4" height="2.1" id="mask-2_49_">
	<g class="st21">
		<polygon id="path-1_49_" class="st3" points="0,148 218.9,148 218.9,0.3 0,0.3 		"/>
	</g>
</mask>
<polygon id="Stroke-53" class="st22" points="75.7,101 75.7,98.8 150.1,98.8 150.1,101 "/>
<defs>
	<filter id="Adobe_OpacityMaskFilter_10_" filterUnits="userSpaceOnUse" x="13.1" y="71.8" width="51.1" height="67.7">
		<feColorMatrix  type="matrix" values="1 0 0 0 0  0 1 0 0 0  0 0 1 0 0  0 0 0 1 0"/>
	</filter>
</defs>
<mask maskUnits="userSpaceOnUse" x="13.1" y="71.8" width="51.1" height="67.7" id="mask-2_51_">
	<g class="st23">
		<polygon id="path-1_51_" class="st3" points="0,148 218.9,148 218.9,0.3 0,0.3 		"/>
	</g>
</mask>
<path id="Fill-55" class="st24" d="M17.8,138.5l0.4-61.1h46v-5l-44.4-0.6c-3.7,0-6.7,2.9-6.7,6.6v61.1L17.8,138.5z"/>
<defs>
	<filter id="Adobe_OpacityMaskFilter_11_" filterUnits="userSpaceOnUse" x="20.9" y="80.5" width="11.1" height="11">
		<feColorMatrix  type="matrix" values="1 0 0 0 0  0 1 0 0 0  0 0 1 0 0  0 0 0 1 0"/>
	</filter>
</defs>
<mask maskUnits="userSpaceOnUse" x="20.9" y="80.5" width="11.1" height="11" id="mask-2_57_">
	<g class="st25">
		<polygon id="path-1_57_" class="st3" points="0,148 218.9,148 218.9,0.3 0,0.3 		"/>
	</g>
</mask>
<path id="Stroke-61" class="st26" d="M22.7,91.2c-0.4,0.4-1.1,0.4-1.5,0c-0.4-0.4-0.4-1.1,0-1.5l9-8.9c0.4-0.4,1.1-0.4,1.5,0
	c0.4,0.4,0.4,1.1,0,1.5L22.7,91.2z"/>
<defs>
	<filter id="Adobe_OpacityMaskFilter_12_" filterUnits="userSpaceOnUse" x="20.9" y="80.3" width="20.1" height="20">
		<feColorMatrix  type="matrix" values="1 0 0 0 0  0 1 0 0 0  0 0 1 0 0  0 0 0 1 0"/>
	</filter>
</defs>
<mask maskUnits="userSpaceOnUse" x="20.9" y="80.3" width="20.1" height="20" id="mask-2_58_">
	<g class="st27">
		<polygon id="path-1_58_" class="st3" points="0,148 218.9,148 218.9,0.3 0,0.3 		"/>
	</g>
</mask>
<path id="Stroke-62" class="st28" d="M22.7,100c-0.4,0.4-1.1,0.4-1.5,0c-0.4-0.4-0.4-1.1,0-1.5l18-17.9c0.4-0.4,1.1-0.4,1.5,0
	c0.4,0.4,0.4,1.1,0,1.5L22.7,100z"/>
<defs>
	<filter id="Adobe_OpacityMaskFilter_13_" filterUnits="userSpaceOnUse" x="31.6" y="80.2" width="18.8" height="18.6">
		<feColorMatrix  type="matrix" values="1 0 0 0 0  0 1 0 0 0  0 0 1 0 0  0 0 0 1 0"/>
	</filter>
</defs>
<mask maskUnits="userSpaceOnUse" x="31.6" y="80.2" width="18.8" height="18.6" id="mask-2_59_">
	<g class="st29">
		<polygon id="path-1_59_" class="st3" points="0,148 218.9,148 218.9,0.3 0,0.3 		"/>
	</g>
</mask>
<path id="Stroke-63" class="st30" d="M33.5,98.6c-0.4,0.4-1.1,0.4-1.5,0c-0.4-0.4-0.4-1.1,0-1.5c0.9-0.9,1.9-1.9,3-2.9
	c3-3,6.2-6.2,9.4-9.3c1.8-1.8,1.8-1.8,3.1-3.1c1-1,1-1,1.2-1.2c0.4-0.4,1.1-0.4,1.5,0c0.4,0.4,0.4,1.1,0,1.5
	c-0.2,0.2-0.2,0.2-1.2,1.2c-1.3,1.3-1.3,1.3-3.1,3.1c-3.2,3.2-6.4,6.4-9.4,9.3C35.4,96.6,34.4,97.6,33.5,98.6z"/>
<g>
	<path class="st1" d="M153.8,0.3H144v2.1h9.8c3.7,0,6.7,3,6.7,6.7v105.4h-22.6c-5.2,0-9.4,4.2-9.4,9.3v22H72c-3.7,0-6.7-3-6.7-6.7
		V79.4v-8.1v-8.1h-2.1v8.1H19.9c-4.4,0-7.9,3.5-7.9,7.8V125h2.1V79.2c0-3.2,2.6-5.7,5.8-5.7h43.2v2.8c-0.4-0.2-0.9-0.3-1.4-0.3H20.2
		c-1.9,0-3.5,1.6-3.5,3.5v59h-2.6v-5.6H12v5.6H0v5c0,2.5,2.1,4.6,4.6,4.6h70v0h55.7l0.3-0.3c2.8-2.7,5.5-5.5,9.2-9.2
		c15.5-15.4,16-15.9,22.4-22.2l0.3-0.3V9.1C162.6,4.3,158.7,0.3,153.8,0.3z M18.9,79.4c0-0.7,0.6-1.4,1.4-1.4h41.5
		c0.8,0,1.4,0.6,1.4,1.4v59H18.9V79.4z M2.1,143.4v-2.8h14.6h46.5c0.3,2.1,1.4,4,3,5.3H4.6C3.2,145.9,2.1,144.8,2.1,143.4z
		 M138.4,137c-3.1,3.1-5.5,5.5-7.8,7.7v-20.9c0-4,3.3-7.2,7.3-7.2H159C154.1,121.4,152.2,123.3,138.4,137z"/>
	<path class="st1" d="M27.5,101.5l-6.2,6.2c-0.4,0.4-0.4,1.1,0,1.5c0.4,0.4,1.1,0.4,1.5,0L29,103c0.4-0.4,0.4-1.1,0-1.5
		S27.9,101.1,27.5,101.5z"/>
</g>
<g>
	<path class="st1" d="M95.3,118.6c0-5.7-4.6-10.3-10.4-10.3s-10.4,4.6-10.4,10.3c0,3.2,1.5,6.1,3.9,8v9.1c0,1.5,1.9,2.3,3,1.2
		l3.5-3.5l3.5,3.5c1.1,1.1,3,0.3,3-1.2v-9.1C93.8,124.7,95.3,121.8,95.3,118.6z M76.7,118.6c0-4.5,3.7-8.2,8.2-8.2s8.2,3.7,8.2,8.2
		c0,4.5-3.7,8.2-8.2,8.2c-1.8,0-3.5-0.6-4.9-1.6C78,123.6,76.7,121.2,76.7,118.6z M89.3,134.7l-3.6-3.6l-0.8-0.8l-4.3,4.3v-6.8
		c1.3,0.6,2.8,0.9,4.3,0.9c1.6,0,3-0.4,4.4-1V134.7z"/>
	<path class="st1" d="M81.6,123c1,0.7,2.1,1.1,3.4,1.1c3.1,0,5.6-2.5,5.6-5.6c0-3.1-2.5-5.6-5.6-5.6s-5.6,2.5-5.6,5.6
		C79.3,120.3,80.2,122,81.6,123z M85,115.1c1.9,0,3.5,1.6,3.5,3.5S86.9,122,85,122c-0.8,0-1.5-0.2-2.1-0.7c-0.9-0.7-1.4-1.7-1.4-2.8
		C81.5,116.6,83,115.1,85,115.1z"/>
</g>
<g>
	<rect x="171.9" y="34.3" class="st3" width="13.4" height="13.2"/>
	<rect x="171.9" y="36.8" class="st31" width="10.9" height="10.7"/>
</g>
<g>
	<rect x="171.9" y="1.8" class="st3" width="13.4" height="13.2"/>
	<rect x="171.9" y="4.3" class="st31" width="10.9" height="10.7"/>
</g>
<g>
	<rect x="204" y="34.3" class="st3" width="13.4" height="13.2"/>
	<rect x="204" y="36.8" class="st31" width="10.9" height="10.7"/>
</g>
<g>
	<rect x="204" y="1.8" class="st3" width="13.4" height="13.2"/>
	<rect x="204" y="4.3" class="st31" width="10.9" height="10.7"/>
</g>
</svg>
