<svg xmlns="http://www.w3.org/2000/svg" viewBox="0 0 238.85 148.18"><defs><style>.cls-1{fill:#507c88;}.cls-2{fill:#ffd900;}.cls-3{fill:#c8dce5;}.cls-4{fill:#04bebd;}.cls-5{fill:none;}.cls-6{fill:#2f7d8a;}.cls-7{fill:#32808d;}.cls-8{fill:#fff;}.cls-9{fill:#00bfbe;}.cls-10{fill:#507c89;}</style></defs><title>icon_Automation</title><g id="Layer_2" data-name="Layer 2"><g id="Group_43" data-name="Group 43"><path class="cls-1" d="M232.66,23.71h-4.13V21.65h4.13Z"/><path class="cls-2" d="M217,34l-.63-.08-.18-.66c-.72-2.63-3.81-4.65-6.18-4a6.4,6.4,0,0,0-2.21,1.62h0c1.63,2.35,2,4.25,2,7.32a14.32,14.32,0,0,1-.13,1.83H219c1.66,0,2.71-2.32,2-3.65A4.83,4.83,0,0,0,217,34Z"/><path class="cls-1" d="M238.85,12.16V4.1a3.1,3.1,0,0,0-3.1-3.1H225.43a3.1,3.1,0,0,0-3.1,3.1V24.74a3.1,3.1,0,0,0,3.1,3.1h4.13v3.1h-7.65a7.17,7.17,0,0,0-2.18-.87A8.3,8.3,0,0,0,212,24.74a8.22,8.22,0,0,0-3.37.72,8.25,8.25,0,0,0-15.21,4.44c0,.1,0,.2,0,.31a7.22,7.22,0,0,0-3,1.76H186.2V21.65h5.16V19.58H189.3V17.52h3.1a3.1,3.1,0,0,0,3.1-3.1V4.1A3.1,3.1,0,0,0,192.4,1h-3V3.06h3a1,1,0,0,1,1,1v7.23H176.91V4.1a1,1,0,0,1,1-1h8.31V1h-8.31a3.1,3.1,0,0,0-3.1,3.1V14.42a3.1,3.1,0,0,0,3.1,3.1H181v2.06H179v2.06h5.16V34H189a7.14,7.14,0,0,0-.64,2.06v2.06a7.23,7.23,0,0,0,7.14,6.19H218.2a7.24,7.24,0,0,0,7.23-7.23h2.06v9.29H221.3a3.1,3.1,0,0,0-3.1,3.1v2.23h2.06V49.52a1,1,0,0,1,1-1h12.39a1,1,0,0,1,1,1v9.29H220.27V54.92H218.2v3.88h-2.06v3.1a3.1,3.1,0,0,0,3.1,3.1h16.52a3.1,3.1,0,0,0,3.1-3.1v-3.1h-2.06V49.52a3.1,3.1,0,0,0-3.1-3.1h-4.13V35.06h-4.45a7.19,7.19,0,0,0-1-2.06h7.52V27.84h4.13a3.1,3.1,0,0,0,3.1-3.1V15.33h-2.06v2.18H224.4V7.19h12.39v5Zm-60.9,3.3a1,1,0,0,1-1-1v-1h16.52v1a1,1,0,0,1-1,1Zm5.16,4.13V17.52h4.13v2.06Zm53.68,41.29v1a1,1,0,0,1-1,1H219.24a1,1,0,0,1-1-1v-1ZM218.2,42.29H195.49A5.16,5.16,0,0,1,194.71,32l1-.15-.16-1a6.18,6.18,0,0,1,11.72-3.57l.49,1,1-.61A6.18,6.18,0,0,1,218,31.27l.19.66.68.08a5.16,5.16,0,0,1-.62,10.28Zm18.58-22.71v5.16a1,1,0,0,1-1,1H225.43a1,1,0,0,1-1-1V19.58ZM224.4,5.13v-1a1,1,0,0,1,1-1h10.32a1,1,0,0,1,1,1v1Z"/><polygon class="cls-3" points="39.78 47.27 37.72 48.13 36.28 51.07 36.28 89.72 36.28 89.72 36.28 135.66 125.35 135.66 125.35 88.88 125.35 68.87 125.35 47.27 39.78 47.27"/><path class="cls-4" d="M29,136.32h8.14v10.4h152c2.63,0,4.77-1.4,4.79-3.15v-7.25Z"/><path class="cls-4" d="M60.35,40.89l-21.1-.27a6.63,6.63,0,0,0-6.75,6.52s0,47.18,0,47.18h4.7l.45-48.16h22.7Z"/><path class="cls-4" d="M182.65,47.13a6.63,6.63,0,0,0-6.75-6.52l-21.63.13v5.41H177.5l.45,91.12,4.7-1V47.13Z"/><line class="cls-5" x1="91.42" y1="137.78" x2="63.4" y2="146.06"/><polyline class="cls-5" points="73.4 137.78 36 137.78 106 137.78"/><path class="cls-6" d="M36,135.66"/><polygon class="cls-6" points="73.4 135.66 78.14 135.66 73.4 135.66 73.4 135.66"/><line class="cls-6" x1="73.4" y1="137.78" x2="73.4" y2="137.78"/><polygon class="cls-6" points="79.81 135.66 78.14 135.66 79.81 135.66 76 135.66 79.81 135.66"/><path class="cls-6" d="M71,135.66"/><path class="cls-6" d="M73.4,135.66H37.06A1.06,1.06,0,0,0,36,136.72h0a1.06,1.06,0,0,0,1.06,1.06H73.4Z"/><path class="cls-4" d="M73.4,165.14"/><path class="cls-4" d="M63.4,148.18"/><path class="cls-4" d="M63.4,146.06"/><path class="cls-4" d="M73.4,137.78"/><path class="cls-4" d="M73.4,40.52"/><path class="cls-4" d="M73.4,44.39"/><path class="cls-4" d="M73.4,135.66"/><path class="cls-4" d="M73.4,47.28"/><line class="cls-4" x1="73.4" y1="40.52" x2="73.4" y2="42.64"/><line class="cls-4" x1="73.4" y1="135.66" x2="73.4" y2="135.66"/><line class="cls-4" x1="73.4" y1="45.15" x2="73.4" y2="47.28"/><line class="cls-4" x1="73.4" y1="137.78" x2="73.4" y2="137.78"/><line class="cls-4" x1="63.4" y1="146.06" x2="63.4" y2="148.18"/><line class="cls-4" x1="73.4" y1="137.78" x2="73.4" y2="137.78"/><line class="cls-4" x1="73.4" y1="135.66" x2="73.4" y2="137.78"/><path class="cls-5" d="M70.4,137.78h123v5.85a2.44,2.44,0,0,1-2.46,2.43H60.4"/><path class="cls-5" d="M70.4,135.66H176.66v-87a1.37,1.37,0,0,0-1.37-1.36H70.4"/><polygon class="cls-6" points="178.8 135.66 181.36 135.66 181.36 62.1 183.5 62.1 183.5 135.66 178.8 135.66 178.8 135.66"/><rect class="cls-6" x="70.4" y="135.66" width="106.26"/><path class="cls-6" d="M60.35,40.52H39.22a7.88,7.88,0,0,0-7.92,7.85V85.08a1.07,1.07,0,1,0,2.14,0V48.37a5.75,5.75,0,0,1,5.78-5.73H60.35Z"/><path class="cls-6" d="M175.58,40.52H154.27v2.12h21.31a5.75,5.75,0,0,1,5.78,5.73v5.78h2.14V48.37A7.88,7.88,0,0,0,175.58,40.52Z"/><rect class="cls-6" x="70.4" y="137.78" width="108.4"/><rect class="cls-6" x="176.66" y="135.66" width="2.14"/><path class="cls-6" d="M190.93,146.06a2.44,2.44,0,0,0,2.46-2.43v-5.85H183.5v-2.12h12v8a4.57,4.57,0,0,1-4.59,4.55H61.46a1.06,1.06,0,0,1-1.06-1.06h0a1.06,1.06,0,0,1,1.06-1.06Z"/><rect class="cls-6" x="178.8" y="135.66" width="4.7" height="2.12"/><rect class="cls-6" x="70.4" y="137.78" width="108.4"/><polygon class="cls-6" points="70.4 135.66 176.66 135.66 178.8 135.66 178.8 137.78 70.4 137.78 70.4 135.66"/><path class="cls-4" d="M125.4,165.14"/><path class="cls-4" d="M60.4,148.18"/><path class="cls-4" d="M60.4,146.06"/><path class="cls-4" d="M70.4,137.78"/><path class="cls-4" d="M70.4,40.52"/><path class="cls-4" d="M70.4,44.39"/><path class="cls-4" d="M70.4,135.66"/><path class="cls-4" d="M70.4,47.28"/><path class="cls-4" d="M70.4,40.52"/><line class="cls-4" x1="70.4" y1="135.66" x2="70.4" y2="135.66"/><path class="cls-4" d="M70.4,45.15"/><line class="cls-4" x1="70.4" y1="137.78" x2="70.4" y2="137.78"/><path class="cls-4" d="M60.4,146.06"/><line class="cls-4" x1="70.4" y1="137.78" x2="70.4" y2="137.78"/><path class="cls-4" d="M70.4,135.66"/><path class="cls-6" d="M60.35,45.15H39.51A3.5,3.5,0,0,0,36,48.63v46a1.07,1.07,0,1,0,2.14,0v-46a1.37,1.37,0,0,1,1.37-1.36H60.35Z"/><path class="cls-6" d="M175.29,45.15h-21v2.12h21a1.37,1.37,0,0,1,1.37,1.36v87h2.14v-87A3.5,3.5,0,0,0,175.29,45.15Z"/><rect id="Rectangle-path" class="cls-7" x="53.99" y="62.94" width="72.2" height="1.93"/><rect id="Rectangle-path-2" class="cls-7" x="53.99" y="71.64" width="46.1" height="1.93"/><rect id="Rectangle-path-3" class="cls-7" x="108.79" y="71.64" width="53.93" height="1.93"/><rect id="Rectangle-path-4" class="cls-7" x="53.99" y="80.34" width="57.7" height="1.93"/><rect id="Rectangle-path-5" class="cls-7" x="116.52" y="80.34" width="33.63" height="1.93"/><rect id="Rectangle-path-6" class="cls-7" x="53.99" y="91.01" width="36.43" height="1.93"/><rect id="Rectangle-path-7" class="cls-7" x="93.86" y="90.94" width="17" height="2"/><rect id="Rectangle-path-9" class="cls-7" x="126.86" y="108.94" width="17" height="2"/><rect id="Rectangle-path-10" class="cls-7" x="116.86" y="90.94" width="35" height="2"/><rect id="Rectangle-path-11" class="cls-7" x="57.86" y="100.94" width="17" height="2"/><rect id="Rectangle-path-12" class="cls-7" x="60.86" y="108.94" width="46" height="2"/><rect id="Rectangle-path-13" class="cls-7" x="62.86" y="118.94" width="44" height="2"/><rect id="Rectangle-path-14" class="cls-7" x="116.86" y="119.07" width="45.87" height="1.74"/><rect class="cls-6" x="31.3" y="146.24" width="21.55" height="1.77" rx="0.88" ry="0.88"/><rect class="cls-8" x="60.35" y="44.39" width="93.92" height="35.71"/><path id="Fill_7" data-name="Fill 7" class="cls-9" d="M145.25,10h-74V6.83C71.25,3,74.32,1,78.09,1h60.4c3.74,0,6.77,2.05,6.76,5.8h0Z"/><path id="Fill_8" data-name="Fill 8" class="cls-10" d="M145.25,24a1.05,1.05,0,0,0-1,1.1v5.8a1,1,0,1,0,2,0v-5.8a1.05,1.05,0,0,0-1-1.1"/><path id="Fill_28" data-name="Fill 28" class="cls-10" d="M138.75,4a1.5,1.5,0,1,0,1.5,1.5,1.5,1.5,0,0,0-1.5-1.5"/><path id="Fill_29" data-name="Fill 29" class="cls-10" d="M133.75,4a1.5,1.5,0,1,0,1.5,1.5,1.5,1.5,0,0,0-1.5-1.5"/><path id="Fill_30" data-name="Fill 30" class="cls-10" d="M128.75,4a1.5,1.5,0,1,0,1.5,1.5,1.5,1.5,0,0,0-1.5-1.5"/><path class="cls-10" d="M139.39,0H77.15c-3.79,0-6.86,2.08-6.86,5.87V40a1.12,1.12,0,1,0,2.25,0V11.1H144V18a1.12,1.12,0,1,0,2.25,0V5.87C146.25,2.08,143.18,0,139.39,0ZM144,8.85H72.54v-3c0-2.55,2.07-3.62,4.62-3.62h62.24c2.55,0,4.62,1.07,4.62,3.62Z"/><path class="cls-10" d="M145.13,36.74A1.12,1.12,0,0,0,144,37.86V63.73H72.54V47.86a1.12,1.12,0,1,0-2.25,0V66h76V37.86A1.12,1.12,0,0,0,145.13,36.74Z"/><path class="cls-10" d="M80.23,65.94l55.26,0V64.14h-3.26V27.24a2.76,2.76,0,0,0,1.84-2.58,2.73,2.73,0,0,0-.63-1.73,2.9,2.9,0,0,0-2.12-1,2.75,2.75,0,0,0-2.75,2.75,2.7,2.7,0,0,0,.34,1.29l-9.43,12.68a2.71,2.71,0,0,0-1-.2,2.74,2.74,0,0,0-2,.86l-8.21-4.78a2.67,2.67,0,0,0,.1-.67,2.75,2.75,0,1,0-5.51,0,2.72,2.72,0,0,0,.53,1.61L93.52,49.57a2.67,2.67,0,0,0-.78-.13A2.77,2.77,0,0,0,90,52.2a2.72,2.72,0,0,0,.56,1.64L83.19,64.1h-3ZM108.1,16.38,108,18.21l.92,0,1.54.06.22,0,.91.11.23-1.82-.91-.11-.27,0h-.08L109,16.41Zm-2,.19-.91.13-.61.09h0l0,0-1.18.29-.89.22.43,1.79.89-.22,1.16-.28.56-.08.91-.13Zm7.73.33-.55,1.75.88.28,1.75.55.88.28.55-1.75-.88-.28-1.75-.55ZM100.52,18l-.84.38-1,.46,0,0,0,0L98,19.2l-.8.46.91,1.6.8-.46.6-.34,1-.43.84-.38Zm18.6.94-.86,1.62.81.43.24.12,1.24.81.77.5,1-1.54-.77-.5-1.29-.84,0,0,0,0-.26-.14ZM95.47,20.73l-.7.59-1.32,1.13,0,0,0,0-.06.07-.64.66L94,24.52l.64-.66h0l0,0L96,22.73l.7-.6Zm28.39,1.44-1.27,1.32.66.63.51.48v0l.67.78.6.7,1.39-1.2-.6-.69-.69-.8,0,0,0,0-.57-.55Zm7.45,1.56a.92.92,0,1,1-.92.92A.9.9,0,0,1,131.31,23.73Zm-39.91.94-.58.71-.13.16,0,0,0,0L89.74,27l-.51.76,1.53,1,.51-.76.88-1.33.1-.13.58-.71Zm38.86,2.53.13,0v36.9h-11V43.77a2.76,2.76,0,0,0,1.84-2.58,2.71,2.71,0,0,0-.37-1.34Zm-41.9,2.35-.36.85-.22.51V31l-.39,1.22-.29.87,1.75.57.28-.87.38-1.17.21-.48.36-.85Zm17.24,3.37a.92.92,0,1,1-.92.92A.9.9,0,0,1,105.6,32.92ZM86.65,35l-.13.91-.12.88v.08l0,1,0,.92,1.83.09,0-.92,0-.91.11-.84.13-.91Zm20.58,1L115.72,41c0,.07,0,.13,0,.2a2.76,2.76,0,0,0,1.84,2.58V64.14h-11V36.42A2.83,2.83,0,0,0,107.23,36Zm-2.55.74V64.14h-11V54.79A2.74,2.74,0,0,0,95,50.64Zm13.77,3.48a.92.92,0,1,1-.92.92A.9.9,0,0,1,118.45,40.26Zm-30.25.25-1.82.26.13.91.17,1.26V43l.13.55.21.89L88.82,44l-.21-.89-.11-.47v0l-.17-1.24Zm1,5.15-1.68.75.37.84.74,1.68.37.84L90.73,49l-.37-.84-.74-1.68Zm3.5,5.62a.92.92,0,1,1-.92.92A.9.9,0,0,1,92.74,51.28Zm-.92,3.92v8.94H85.59Z"/><path class="cls-2" d="M100.91,33.9s3.44-7.12,8.19-3.87,9.06,6.06,9.06,6.06l4.29-6.24A16.62,16.62,0,0,0,93.32,45.65Z"/><circle class="cls-8" cx="29" cy="119.18" r="28"/><path class="cls-7" d="M29,148.18a29,29,0,1,1,29-29A29,29,0,0,1,29,148.18Zm0-56a27,27,0,1,0,27,27A27,27,0,0,0,29,92.18Z"/><circle class="cls-2" cx="37.87" cy="111.71" r="2.7"/><path class="cls-7" d="M40.87,124.64v-6.79a1,1,0,1,0-1.92,0v6.79a5.22,5.22,0,0,0,1.7,3.84,1.5,1.5,0,0,1-1,2.6H18.34a1.5,1.5,0,0,1-1-2.6,5.22,5.22,0,0,0,1.7-3.84v-7.89a10,10,0,0,1,14-9.09,5.33,5.33,0,1,0,1.25-1.53,11.81,11.81,0,0,0-2.77-1,2.8,2.8,0,1,0-5.1,0,11.88,11.88,0,0,0-9.33,11.6v7.89A3.29,3.29,0,0,1,16,127.06a3.42,3.42,0,0,0,2.3,5.94h6.1a4.64,4.64,0,0,0,9.09,0h6.1a3.42,3.42,0,0,0,2.3-5.94A3.29,3.29,0,0,1,40.87,124.64ZM37.74,106.8a3.41,3.41,0,1,1-3.41,3.41A3.41,3.41,0,0,1,37.74,106.8ZM29,103.12a.88.88,0,1,1-.88.88A.88.88,0,0,1,29,103.12Zm0,31.65A2.71,2.71,0,0,1,26.44,133h5.1A2.71,2.71,0,0,1,29,134.77Z"/><path class="cls-7" d="M21.36,117.87a1.1,1.1,0,1,0,1.1-1.11A1.1,1.1,0,0,0,21.36,117.87Z"/><path class="cls-7" d="M23.94,115.26c1-2.47,1.89-3.38,4.58-3.38a1,1,0,0,0,0-1.92c-3.46,0-5.46,1.61-6.34,4.55a1.09,1.09,0,0,0,0,.73,1,1,0,0,0,1.77,0Z"/><polyline id="Rectangle-path-11-2" data-name="Rectangle-path-11" class="cls-7" points="81.86 100.94 98.86 100.94 98.86 102.94 81.86 102.94"/><path class="cls-2" d="M30,136.55a4.52,4.52,0,0,1-1,.13A4.68,4.68,0,0,1,24.45,133h-6a3.54,3.54,0,0,1-3-1.59,3.41,3.41,0,0,1,.52-4.3,3.38,3.38,0,0,0,1.13-2.42v-7.94a11.88,11.88,0,0,1,9.33-11.6,2.8,2.8,0,0,1,2.55-4,2.77,2.77,0,0,1,1.33.35l.06,0a3,3,0,0,0-2-5.31q-.89,0-1.8.12A23,23,0,0,0,29,142.19h.08a2.81,2.81,0,0,0,1.72-5Z"/></g></g></svg>